# xmcd
#
# Track frame offsets:
#	150
#	28448
#	48661
#	74771
#	90630
#	113685
#	133788
#	151941
#	166879
#	184929
#	205863
#	225425
#	238661
#
# Disc length: 3432 seconds
#
# Revision: 1
# Processed by: cddbd v1.5.2PL0 Copyright (c) Steve Scherf et al.
# Submitted via: audiograbber 1.83.01
#
DISCID=b50d660d
DTITLE=Blind Passengers - Timemachine
DYEAR=2005
DGENRE=Synthpop
TTITLE0=Walking To Heaven (1993 Extended Version)
TTITLE1=Small Town Night ( 1992 New Cut)
TTITLE2=Born To Die ( 1994 Club Maxi Version)
TTITLE3=Headache (1994)
TTITLE4=Your Smell (1993)
TTITLE5=When The Sky Broke (1992/2005)
TTITLE6=Spacechild (1997/2005)
TTITLE7=Too Much (1992/2005)
TTITLE8=Broken Conscience (1995)
TTITLE9=Voice Of Dark (1993/2005)
TTITLE10=Yes Sir ! (1993/2005)
TTITLE11=Absurdistan (1995/2005)
TTITLE12=Hidden Track
EXTD=
EXTT0=
EXTT1=
EXTT2=
EXTT3=
EXTT4=
EXTT5=
EXTT6=
EXTT7=
EXTT8=
EXTT9=
EXTT10=
EXTT11=
EXTT12=
PLAYORDER=
